<mxfile host="app.diagrams.net" modified="2020-11-24T08:49:17.232Z" agent="5.0 (Macintosh; Intel Mac OS X 10_15_6) AppleWebKit/605.1.15 (KHTML, like Gecko) Version/14.0 Safari/605.1.15" etag="WGipBiKeQZ_k519K41IZ" version="13.10.2" type="github">
  <diagram name="Page-1" id="97916047-d0de-89f5-080d-49f4d83e522f">
    <mxGraphModel dx="3645.5" dy="1324" grid="1" gridSize="10" guides="1" tooltips="1" connect="1" arrows="1" fold="1" page="1" pageScale="1.5" pageWidth="1169" pageHeight="827" background="#ffffff" math="0" shadow="0">
      <root>
        <mxCell id="0" />
        <mxCell id="1" parent="0" />
        <mxCell id="IA3jvU3uNQat7jcpuoW0-75" value="" style="rounded=0;whiteSpace=wrap;html=1;labelBackgroundColor=none;fontSize=32;fillColor=#fff2cc;opacity=50;strokeColor=none;allowArrows=0;editable=0;movable=0;" parent="1" vertex="1">
          <mxGeometry x="-1120" y="640" width="3880" height="520" as="geometry" />
        </mxCell>
        <mxCell id="IA3jvU3uNQat7jcpuoW0-69" value="" style="rounded=0;whiteSpace=wrap;html=1;labelBackgroundColor=none;fontSize=32;fillColor=#d5e8d4;opacity=50;strokeColor=none;allowArrows=0;editable=0;movable=0;" parent="1" vertex="1">
          <mxGeometry x="-1120" y="360" width="3880" height="280" as="geometry" />
        </mxCell>
        <mxCell id="IA3jvU3uNQat7jcpuoW0-68" value="" style="rounded=0;whiteSpace=wrap;html=1;labelBackgroundColor=none;fontSize=32;fillColor=#dae8fc;opacity=50;strokeColor=none;allowArrows=0;editable=0;movable=0;" parent="1" vertex="1">
          <mxGeometry x="-1130" width="3890" height="360" as="geometry" />
        </mxCell>
        <mxCell id="IA3jvU3uNQat7jcpuoW0-59" value="Unser strategisches Ziel:" style="text;html=1;strokeColor=none;fillColor=none;align=center;verticalAlign=middle;whiteSpace=wrap;rounded=0;fontSize=32;fontColor=#66B2FF;labelBorderColor=none;labelBackgroundColor=none;" parent="1" vertex="1">
          <mxGeometry x="-1081.5" y="82.5" width="400" height="55" as="geometry" />
        </mxCell>
        <mxCell id="IA3jvU3uNQat7jcpuoW0-60" value="Unsere taktischen Ziele:" style="text;html=1;strokeColor=none;fillColor=none;align=center;verticalAlign=middle;whiteSpace=wrap;rounded=0;fontSize=32;fontColor=#66B2FF;labelBorderColor=none;labelBackgroundColor=none;" parent="1" vertex="1">
          <mxGeometry x="-1071" y="504.5" width="400" height="55" as="geometry" />
        </mxCell>
        <mxCell id="IA3jvU3uNQat7jcpuoW0-61" value="Unsere operativen Ziele:" style="text;html=1;strokeColor=none;fillColor=none;align=center;verticalAlign=middle;whiteSpace=wrap;rounded=0;fontSize=32;fontColor=#66B2FF;labelBorderColor=none;labelBackgroundColor=none;" parent="1" vertex="1">
          <mxGeometry x="-1071" y="885" width="400" height="55" as="geometry" />
        </mxCell>
        <mxCell id="gunOKHIYSJDINgIafA28-32" style="edgeStyle=elbowEdgeStyle;rounded=1;sketch=0;orthogonalLoop=1;jettySize=auto;elbow=vertical;html=1;exitX=0.5;exitY=1;exitDx=0;exitDy=0;entryX=0.5;entryY=0;entryDx=0;entryDy=0;shadow=0;startArrow=classic;startFill=1;endArrow=none;endFill=0;strokeColor=#4D85BF;strokeWidth=6;fontSize=32;fontColor=#66B2FF;" parent="1" source="IA3jvU3uNQat7jcpuoW0-66" target="gunOKHIYSJDINgIafA28-18" edge="1">
          <mxGeometry relative="1" as="geometry" />
        </mxCell>
        <mxCell id="gunOKHIYSJDINgIafA28-33" style="edgeStyle=elbowEdgeStyle;rounded=1;sketch=0;orthogonalLoop=1;jettySize=auto;elbow=vertical;html=1;exitX=0.5;exitY=1;exitDx=0;exitDy=0;entryX=0.5;entryY=0;entryDx=0;entryDy=0;shadow=0;startArrow=classic;startFill=1;endArrow=none;endFill=0;strokeColor=#4D85BF;strokeWidth=6;fontSize=32;fontColor=#66B2FF;" parent="1" source="IA3jvU3uNQat7jcpuoW0-66" target="IA3jvU3uNQat7jcpuoW0-71" edge="1">
          <mxGeometry relative="1" as="geometry" />
        </mxCell>
        <mxCell id="gunOKHIYSJDINgIafA28-34" style="edgeStyle=elbowEdgeStyle;rounded=1;sketch=0;orthogonalLoop=1;jettySize=auto;elbow=vertical;html=1;exitX=0.5;exitY=1;exitDx=0;exitDy=0;entryX=0.5;entryY=0;entryDx=0;entryDy=0;shadow=0;startArrow=classic;startFill=1;endArrow=none;endFill=0;strokeColor=#4D85BF;strokeWidth=6;fontSize=32;fontColor=#66B2FF;" parent="1" source="IA3jvU3uNQat7jcpuoW0-66" target="gunOKHIYSJDINgIafA28-20" edge="1">
          <mxGeometry relative="1" as="geometry" />
        </mxCell>
        <mxCell id="gunOKHIYSJDINgIafA28-35" style="edgeStyle=elbowEdgeStyle;rounded=1;sketch=0;orthogonalLoop=1;jettySize=auto;elbow=vertical;html=1;exitX=0.5;exitY=1;exitDx=0;exitDy=0;entryX=0.5;entryY=0;entryDx=0;entryDy=0;shadow=0;startArrow=classic;startFill=1;endArrow=none;endFill=0;strokeColor=#4D85BF;strokeWidth=6;fontSize=32;fontColor=#66B2FF;" parent="1" source="IA3jvU3uNQat7jcpuoW0-66" target="gunOKHIYSJDINgIafA28-19" edge="1">
          <mxGeometry relative="1" as="geometry" />
        </mxCell>
        <mxCell id="gunOKHIYSJDINgIafA28-36" style="edgeStyle=elbowEdgeStyle;rounded=1;sketch=0;orthogonalLoop=1;jettySize=auto;elbow=vertical;html=1;exitX=0.5;exitY=1;exitDx=0;exitDy=0;entryX=0.5;entryY=0;entryDx=0;entryDy=0;shadow=0;startArrow=classic;startFill=1;endArrow=none;endFill=0;strokeColor=#4D85BF;strokeWidth=6;fontSize=32;fontColor=#66B2FF;" parent="1" source="IA3jvU3uNQat7jcpuoW0-66" target="gunOKHIYSJDINgIafA28-5" edge="1">
          <mxGeometry relative="1" as="geometry" />
        </mxCell>
        <mxCell id="IA3jvU3uNQat7jcpuoW0-66" value="&lt;p class=&quot;MsoNormal&quot; style=&quot;margin: 0cm ; font-size: medium ; font-family: &amp;#34;calibri&amp;#34; , sans-serif&quot;&gt;Bis zum Audit Zwei entwickeln wir Benutzerzentriert nach der&amp;nbsp;DIN EN ISO 9241-210, damit&amp;nbsp;wir alle Effekte beinhalten, die die Nutzung einer Bedienoberfläche vor, während und nach der Nutzung auf unsere Nutzer haben.&lt;/p&gt;&lt;p class=&quot;MsoNormal&quot; style=&quot;margin: 0cm ; font-size: medium ; font-family: &amp;#34;calibri&amp;#34; , sans-serif ; color: rgb(0 , 0 , 0) ; font-weight: normal&quot;&gt;&amp;nbsp;&lt;/p&gt;" style="rounded=1;fillColor=#10739E;strokeColor=none;shadow=1;gradientColor=none;fontStyle=1;fontColor=#FFFFFF;fontSize=14;html=1;whiteSpace=wrap;" parent="1" vertex="1">
          <mxGeometry x="-283.5" y="400" width="333.5" height="150" as="geometry" />
        </mxCell>
        <mxCell id="IA3jvU3uNQat7jcpuoW0-70" value="&amp;nbsp;Wir wollen unsere Nutzergruppen verstanden haben" style="rounded=1;fillColor=#10739E;strokeColor=none;shadow=1;gradientColor=none;fontStyle=1;fontColor=#FFFFFF;fontSize=14;html=1;whiteSpace=wrap;" parent="1" vertex="1">
          <mxGeometry x="1234" y="820" width="220" height="160" as="geometry" />
        </mxCell>
        <mxCell id="IA3jvU3uNQat7jcpuoW0-71" value="&lt;p class=&quot;MsoNormal&quot; style=&quot;margin: 0cm ; font-size: medium ; font-family: &amp;#34;times new roman&amp;#34; , serif ; font-weight: normal&quot;&gt;&lt;span style=&quot;font-family: &amp;#34;calibri&amp;#34; , sans-serif&quot;&gt;Beim Entwickeln ist die Evaluierung ein wichtiger Bestandteil unseres Projekts, weil wir unsere Entwicklungsgedanken voranstellen, um Wissen zu generieren, welche für unsere weitere Arbeit nützlich ist.&lt;/span&gt;&lt;/p&gt;" style="rounded=1;fillColor=#10739E;strokeColor=none;shadow=1;gradientColor=none;fontStyle=1;fontColor=#FFFFFF;fontSize=14;html=1;whiteSpace=wrap;" parent="1" vertex="1">
          <mxGeometry x="-450" y="820" width="220" height="210" as="geometry" />
        </mxCell>
        <mxCell id="gunOKHIYSJDINgIafA28-5" value="&lt;p class=&quot;MsoNormal&quot; style=&quot;margin: 0cm ; font-size: medium ; font-family: &amp;#34;times new roman&amp;#34; , serif ; font-weight: normal&quot;&gt;Beim Entwickeln ist das Social Coding ein wichtiger Bestandteil unseres Projekts, weil dies eine viel bessere Kommunikation und mehr Produktivität ermöglicht, indem es auf ein schnelles Feedback in Projekten kommt, um unsere Zusammenarbeit zu stärken.&amp;nbsp;&lt;font color=&quot;#000000&quot;&gt;&lt;/font&gt;&lt;/p&gt;" style="rounded=1;fillColor=#10739E;strokeColor=none;shadow=1;gradientColor=none;fontStyle=1;fontColor=#FFFFFF;fontSize=14;html=1;whiteSpace=wrap;" parent="1" vertex="1">
          <mxGeometry x="270" y="820" width="210" height="210" as="geometry" />
        </mxCell>
        <mxCell id="gunOKHIYSJDINgIafA28-37" style="edgeStyle=elbowEdgeStyle;rounded=1;sketch=0;orthogonalLoop=1;jettySize=auto;elbow=vertical;html=1;exitX=0.5;exitY=1;exitDx=0;exitDy=0;entryX=0.5;entryY=0;entryDx=0;entryDy=0;shadow=0;startArrow=classic;startFill=1;endArrow=none;endFill=0;strokeColor=#4D85BF;strokeWidth=6;fontSize=32;fontColor=#66B2FF;" parent="1" source="gunOKHIYSJDINgIafA28-6" target="IA3jvU3uNQat7jcpuoW0-70" edge="1">
          <mxGeometry relative="1" as="geometry" />
        </mxCell>
        <mxCell id="gunOKHIYSJDINgIafA28-38" style="edgeStyle=elbowEdgeStyle;rounded=1;sketch=0;orthogonalLoop=1;jettySize=auto;elbow=vertical;html=1;exitX=0.5;exitY=1;exitDx=0;exitDy=0;entryX=0.5;entryY=0;entryDx=0;entryDy=0;shadow=0;startArrow=classic;startFill=1;endArrow=none;endFill=0;strokeColor=#4D85BF;strokeWidth=6;fontSize=32;fontColor=#66B2FF;" parent="1" source="gunOKHIYSJDINgIafA28-6" target="gunOKHIYSJDINgIafA28-13" edge="1">
          <mxGeometry relative="1" as="geometry" />
        </mxCell>
        <mxCell id="gunOKHIYSJDINgIafA28-39" style="edgeStyle=elbowEdgeStyle;rounded=1;sketch=0;orthogonalLoop=1;jettySize=auto;elbow=vertical;html=1;exitX=0.5;exitY=1;exitDx=0;exitDy=0;entryX=0.5;entryY=0;entryDx=0;entryDy=0;shadow=0;startArrow=classic;startFill=1;endArrow=none;endFill=0;strokeColor=#4D85BF;strokeWidth=6;fontSize=32;fontColor=#66B2FF;" parent="1" source="gunOKHIYSJDINgIafA28-6" target="gunOKHIYSJDINgIafA28-15" edge="1">
          <mxGeometry relative="1" as="geometry" />
        </mxCell>
        <mxCell id="gunOKHIYSJDINgIafA28-40" style="edgeStyle=elbowEdgeStyle;rounded=1;sketch=0;orthogonalLoop=1;jettySize=auto;elbow=vertical;html=1;exitX=0.5;exitY=1;exitDx=0;exitDy=0;entryX=0.5;entryY=0;entryDx=0;entryDy=0;shadow=0;startArrow=classic;startFill=1;endArrow=none;endFill=0;strokeColor=#4D85BF;strokeWidth=6;fontSize=32;fontColor=#66B2FF;" parent="1" source="gunOKHIYSJDINgIafA28-6" target="gunOKHIYSJDINgIafA28-17" edge="1">
          <mxGeometry relative="1" as="geometry" />
        </mxCell>
        <mxCell id="gunOKHIYSJDINgIafA28-42" style="edgeStyle=elbowEdgeStyle;rounded=1;sketch=0;orthogonalLoop=1;jettySize=auto;elbow=vertical;html=1;exitX=0.5;exitY=1;exitDx=0;exitDy=0;entryX=0.5;entryY=0;entryDx=0;entryDy=0;shadow=0;startArrow=classic;startFill=1;endArrow=none;endFill=0;strokeColor=#4D85BF;strokeWidth=6;fontSize=32;fontColor=#66B2FF;" parent="1" source="gunOKHIYSJDINgIafA28-6" target="gunOKHIYSJDINgIafA28-16" edge="1">
          <mxGeometry relative="1" as="geometry" />
        </mxCell>
        <mxCell id="gunOKHIYSJDINgIafA28-43" style="edgeStyle=elbowEdgeStyle;rounded=1;sketch=0;orthogonalLoop=1;jettySize=auto;elbow=vertical;html=1;exitX=0.5;exitY=1;exitDx=0;exitDy=0;entryX=0.5;entryY=0;entryDx=0;entryDy=0;shadow=0;startArrow=classic;startFill=1;endArrow=none;endFill=0;strokeColor=#4D85BF;strokeWidth=6;fontSize=32;fontColor=#66B2FF;" parent="1" source="gunOKHIYSJDINgIafA28-6" target="gunOKHIYSJDINgIafA28-12" edge="1">
          <mxGeometry relative="1" as="geometry" />
        </mxCell>
        <mxCell id="gunOKHIYSJDINgIafA28-6" value="&lt;p class=&quot;MsoNormal&quot; style=&quot;margin: 0cm ; font-size: medium ; font-family: &amp;#34;calibri&amp;#34; , sans-serif ; font-weight: normal&quot;&gt;Das Ziel beim Entwickeln unseres Systems ist, dass wir die Nutzergruppen dazu anregen, unser Produkt aktiv weiterhin zu nutzen, indem wir das&amp;nbsp;Zugehörigkeitsgefühl und die Identifikation durch den Kultur- und Traditionsaustausch der Benutzer stärken.&lt;span style=&quot;color: rgb(0 , 0 , 0) ; font-size: 11pt&quot;&gt;&lt;/span&gt;&lt;/p&gt;" style="rounded=1;fillColor=#10739E;strokeColor=none;shadow=1;gradientColor=none;fontStyle=1;fontColor=#FFFFFF;fontSize=14;html=1;whiteSpace=wrap;" parent="1" vertex="1">
          <mxGeometry x="1716.5" y="400" width="343.5" height="130" as="geometry" />
        </mxCell>
        <mxCell id="gunOKHIYSJDINgIafA28-23" style="edgeStyle=elbowEdgeStyle;rounded=1;sketch=0;orthogonalLoop=1;jettySize=auto;elbow=vertical;html=1;exitX=0.5;exitY=1;exitDx=0;exitDy=0;entryX=0.5;entryY=0;entryDx=0;entryDy=0;shadow=0;startArrow=classic;startFill=1;endArrow=none;endFill=0;strokeColor=#4D85BF;strokeWidth=6;fontSize=32;fontColor=#66B2FF;" parent="1" source="gunOKHIYSJDINgIafA28-7" target="IA3jvU3uNQat7jcpuoW0-66" edge="1">
          <mxGeometry relative="1" as="geometry" />
        </mxCell>
        <mxCell id="gunOKHIYSJDINgIafA28-24" style="edgeStyle=elbowEdgeStyle;rounded=1;sketch=0;orthogonalLoop=1;jettySize=auto;elbow=vertical;html=1;exitX=0.5;exitY=1;exitDx=0;exitDy=0;entryX=0.5;entryY=0;entryDx=0;entryDy=0;shadow=0;startArrow=classic;startFill=1;endArrow=none;endFill=0;strokeColor=#4D85BF;strokeWidth=6;fontSize=32;fontColor=#66B2FF;" parent="1" source="gunOKHIYSJDINgIafA28-7" target="gunOKHIYSJDINgIafA28-21" edge="1">
          <mxGeometry relative="1" as="geometry" />
        </mxCell>
        <mxCell id="gunOKHIYSJDINgIafA28-25" style="edgeStyle=elbowEdgeStyle;rounded=1;sketch=0;orthogonalLoop=1;jettySize=auto;elbow=vertical;html=1;exitX=0.5;exitY=1;exitDx=0;exitDy=0;entryX=0.5;entryY=0;entryDx=0;entryDy=0;shadow=0;startArrow=classic;startFill=1;endArrow=none;endFill=0;strokeColor=#4D85BF;strokeWidth=6;fontSize=32;fontColor=#66B2FF;" parent="1" source="gunOKHIYSJDINgIafA28-7" target="gunOKHIYSJDINgIafA28-6" edge="1">
          <mxGeometry relative="1" as="geometry" />
        </mxCell>
        <mxCell id="gunOKHIYSJDINgIafA28-7" value="&lt;p class=&quot;MsoNormal&quot; style=&quot;margin: 0cm ; font-size: medium ; font-family: &amp;#34;calibri&amp;#34; , sans-serif ; font-weight: normal&quot;&gt;Wir erstellen im Laufe des Entwicklungsprojekts ein System, indem der Austausch über Kultur und Tradition im Kontext Kochen langfristig Thema unserer Nutzergruppen wird, damit die eigene Identität nicht verloren geht.&amp;nbsp;&lt;/p&gt;" style="rounded=1;fillColor=#10739E;strokeColor=none;shadow=1;gradientColor=none;fontStyle=1;fontColor=#FFFFFF;fontSize=14;html=1;whiteSpace=wrap;" parent="1" vertex="1">
          <mxGeometry x="656.5" y="77.5" width="440" height="110" as="geometry" />
        </mxCell>
        <mxCell id="gunOKHIYSJDINgIafA28-12" value="Wir gestalten unser Produkt attraktiv und zeitgemäß" style="rounded=1;fillColor=#10739E;strokeColor=none;shadow=1;gradientColor=none;fontStyle=1;fontColor=#FFFFFF;fontSize=14;html=1;whiteSpace=wrap;" parent="1" vertex="1">
          <mxGeometry x="2410" y="820" width="180" height="160" as="geometry" />
        </mxCell>
        <mxCell id="gunOKHIYSJDINgIafA28-13" value="Wir wollen das Nutzer sich gegenseitig motivieren" style="rounded=1;fillColor=#10739E;strokeColor=none;shadow=1;gradientColor=none;fontStyle=1;fontColor=#FFFFFF;fontSize=14;html=1;whiteSpace=wrap;" parent="1" vertex="1">
          <mxGeometry x="1465" y="820" width="220" height="160" as="geometry" />
        </mxCell>
        <mxCell id="gunOKHIYSJDINgIafA28-15" value="&amp;nbsp;Wir übernehmen eine Garantenstellung für Benachteiligte" style="rounded=1;fillColor=#10739E;strokeColor=none;shadow=1;gradientColor=none;fontStyle=1;fontColor=#FFFFFF;fontSize=14;html=1;whiteSpace=wrap;" parent="1" vertex="1">
          <mxGeometry x="1706" y="820" width="200" height="160" as="geometry" />
        </mxCell>
        <mxCell id="gunOKHIYSJDINgIafA28-16" value="Wir wollen die abwechslungsreiche und gesunde Ernährung der Nutzer unterstützen" style="rounded=1;fillColor=#10739E;strokeColor=none;shadow=1;gradientColor=none;fontStyle=1;fontColor=#FFFFFF;fontSize=14;html=1;whiteSpace=wrap;" parent="1" vertex="1">
          <mxGeometry x="2169" y="820" width="200" height="160" as="geometry" />
        </mxCell>
        <mxCell id="gunOKHIYSJDINgIafA28-17" value="Wir wollen moderne Technologien nutzen" style="rounded=1;fillColor=#10739E;strokeColor=none;shadow=1;gradientColor=none;fontStyle=1;fontColor=#FFFFFF;fontSize=14;html=1;whiteSpace=wrap;" parent="1" vertex="1">
          <mxGeometry x="1938" y="820" width="200" height="160" as="geometry" />
        </mxCell>
        <mxCell id="gunOKHIYSJDINgIafA28-18" value="&lt;p class=&quot;MsoNormal&quot; style=&quot;margin: 0cm ; font-size: medium ; font-family: &amp;#34;calibri&amp;#34; , sans-serif ; font-weight: normal&quot;&gt;Bis zum Audit 2 gestalten wir das System möglichst&amp;nbsp;gebrauchstauglich, funktional und verständlich, um eine&amp;nbsp;perfekte Symbiose aus Mensch und System herzustellen.&lt;font color=&quot;#000000&quot;&gt;&lt;/font&gt;&lt;/p&gt;" style="rounded=1;fillColor=#10739E;strokeColor=none;shadow=1;gradientColor=none;fontStyle=1;fontColor=#FFFFFF;fontSize=14;html=1;whiteSpace=wrap;" parent="1" vertex="1">
          <mxGeometry x="-680" y="820" width="220" height="210" as="geometry" />
        </mxCell>
        <mxCell id="gunOKHIYSJDINgIafA28-19" value="&lt;p class=&quot;MsoNormal&quot; style=&quot;margin: 0cm ; font-size: medium ; font-family: &amp;#34;times new roman&amp;#34; , serif ; font-weight: normal&quot;&gt;&lt;span style=&quot;font-family: &amp;#34;calibri&amp;#34; , sans-serif&quot;&gt;Beim Entwickeln ist die Iteration ein wichtiger Bestandteil unseres Projekts, weil wir durch das mehrfache Wiederholen Risiken früher erkennen können und anschließend dadurch die inkrementelle Auslieferung erleichtert wird.&amp;nbsp;&lt;font color=&quot;#000000&quot;&gt;&lt;/font&gt;&lt;/span&gt;&lt;/p&gt;" style="rounded=1;fillColor=#10739E;strokeColor=none;shadow=1;gradientColor=none;fontStyle=1;fontColor=#FFFFFF;fontSize=14;html=1;whiteSpace=wrap;" parent="1" vertex="1">
          <mxGeometry x="40" y="820" width="220" height="210" as="geometry" />
        </mxCell>
        <mxCell id="gunOKHIYSJDINgIafA28-20" value="&lt;p class=&quot;MsoNormal&quot; style=&quot;margin: 0cm ; font-size: medium ; font-family: &amp;#34;times new roman&amp;#34; , serif ; font-weight: normal&quot;&gt;&lt;span style=&quot;font-family: &amp;#34;calibri&amp;#34; , sans-serif&quot;&gt;Während des Entwickelns unseres Systems führen wir eine intensive deep-dive Anforderungsanalyse durch, damit wir die Anforderungen konkret ermitteln, konkretisieren, strukturieren und prüfen zu können, um im Anschluss den passenden Rahmen festzulegen.&lt;font color=&quot;#000000&quot;&gt;&lt;/font&gt;&lt;/span&gt;&lt;/p&gt;" style="rounded=1;fillColor=#10739E;strokeColor=none;shadow=1;gradientColor=none;fontStyle=1;fontColor=#FFFFFF;fontSize=14;html=1;whiteSpace=wrap;" parent="1" vertex="1">
          <mxGeometry x="-220" y="825" width="250" height="200" as="geometry" />
        </mxCell>
        <mxCell id="gunOKHIYSJDINgIafA28-29" style="edgeStyle=elbowEdgeStyle;rounded=1;sketch=0;orthogonalLoop=1;jettySize=auto;elbow=vertical;html=1;exitX=0.5;exitY=1;exitDx=0;exitDy=0;entryX=0.5;entryY=0;entryDx=0;entryDy=0;shadow=0;startArrow=classic;startFill=1;endArrow=none;endFill=0;strokeColor=#4D85BF;strokeWidth=6;fontSize=32;fontColor=#66B2FF;" parent="1" source="gunOKHIYSJDINgIafA28-21" target="gunOKHIYSJDINgIafA28-26" edge="1">
          <mxGeometry relative="1" as="geometry" />
        </mxCell>
        <mxCell id="gunOKHIYSJDINgIafA28-30" style="edgeStyle=elbowEdgeStyle;rounded=1;sketch=0;orthogonalLoop=1;jettySize=auto;elbow=vertical;html=1;exitX=0.5;exitY=1;exitDx=0;exitDy=0;entryX=0.5;entryY=0;entryDx=0;entryDy=0;shadow=0;startArrow=classic;startFill=1;endArrow=none;endFill=0;strokeColor=#4D85BF;strokeWidth=6;fontSize=32;fontColor=#66B2FF;" parent="1" source="gunOKHIYSJDINgIafA28-21" target="gunOKHIYSJDINgIafA28-27" edge="1">
          <mxGeometry relative="1" as="geometry" />
        </mxCell>
        <mxCell id="gunOKHIYSJDINgIafA28-31" style="edgeStyle=elbowEdgeStyle;rounded=1;sketch=0;orthogonalLoop=1;jettySize=auto;elbow=vertical;html=1;exitX=0.5;exitY=1;exitDx=0;exitDy=0;entryX=0.5;entryY=0;entryDx=0;entryDy=0;shadow=0;startArrow=classic;startFill=1;endArrow=none;endFill=0;strokeColor=#4D85BF;strokeWidth=6;fontSize=32;fontColor=#66B2FF;" parent="1" source="gunOKHIYSJDINgIafA28-21" target="gunOKHIYSJDINgIafA28-28" edge="1">
          <mxGeometry relative="1" as="geometry" />
        </mxCell>
        <mxCell id="gunOKHIYSJDINgIafA28-21" value="&lt;p class=&quot;MsoNormal&quot; style=&quot;margin: 0cm ; font-size: medium ; font-family: &amp;#34;calibri&amp;#34; , sans-serif ; font-weight: normal&quot;&gt;Bis zum Audit Eins legen wir ausschließlichen den Fokus auf den Austausch von Kultur und Tradition mit dem Kontext Kochen, um die Wichtigkeit unseres Projekts klar darzustellen.&lt;font color=&quot;#000000&quot;&gt;&lt;/font&gt;&lt;/p&gt;" style="rounded=1;fillColor=#10739E;strokeColor=none;shadow=1;gradientColor=none;fontStyle=1;fontColor=#FFFFFF;fontSize=14;html=1;whiteSpace=wrap;" parent="1" vertex="1">
          <mxGeometry x="716.5" y="420" width="320" height="110" as="geometry" />
        </mxCell>
        <mxCell id="gunOKHIYSJDINgIafA28-26" value="Wir diskutieren verschiedene Methoden zum Austausch von Tradition und Kultur" style="rounded=1;fillColor=#10739E;strokeColor=none;shadow=1;gradientColor=none;fontStyle=1;fontColor=#FFFFFF;fontSize=14;html=1;whiteSpace=wrap;" parent="1" vertex="1">
          <mxGeometry x="536" y="820" width="214" height="160" as="geometry" />
        </mxCell>
        <mxCell id="gunOKHIYSJDINgIafA28-27" value="Wir nutzen ausgewählte Methoden des Austauschs im aktuellen Zeitgeist" style="rounded=1;fillColor=#10739E;strokeColor=none;shadow=1;gradientColor=none;fontStyle=1;fontColor=#FFFFFF;fontSize=14;html=1;whiteSpace=wrap;" parent="1" vertex="1">
          <mxGeometry x="767" y="820" width="223" height="160" as="geometry" />
        </mxCell>
        <mxCell id="gunOKHIYSJDINgIafA28-28" value="Wir bieten essentielle Schnittstellen für die den Kontext Kochen" style="rounded=1;fillColor=#10739E;strokeColor=none;shadow=1;gradientColor=none;fontStyle=1;fontColor=#FFFFFF;fontSize=14;html=1;whiteSpace=wrap;" parent="1" vertex="1">
          <mxGeometry x="1003" y="820" width="220" height="160" as="geometry" />
        </mxCell>
      </root>
    </mxGraphModel>
  </diagram>
</mxfile>
